<?xml version="1.0" encoding="UTF-8" standalone="no"?>
<svg
   xmlns:osb="http://www.openswatchbook.org/uri/2009/osb"
   xmlns:dc="http://purl.org/dc/elements/1.1/"
   xmlns:cc="http://creativecommons.org/ns#"
   xmlns:rdf="http://www.w3.org/1999/02/22-rdf-syntax-ns#"
   xmlns:svg="http://www.w3.org/2000/svg"
   xmlns="http://www.w3.org/2000/svg"
   xmlns:sodipodi="http://sodipodi.sourceforge.net/DTD/sodipodi-0.dtd"
   xmlns:inkscape="http://www.inkscape.org/namespaces/inkscape"
   width="500"
   height="500"
   viewBox="0 0 132.29167 132.29167"
   version="1.1"
   id="svg8"
   inkscape:version="1.0.1 (3bc2e813f5, 2020-09-07)"
   sodipodi:docname="phone.svg">
  <defs
     id="defs2">
    <linearGradient
       id="linearGradient3709"
       osb:paint="solid">
      <stop
         style="stop-color:#000000;stop-opacity:1;"
         offset="0"
         id="stop3707" />
    </linearGradient>
    <rect
       x="40.894451"
       y="78.727402"
       width="20.928993"
       height="21.359397"
       id="rect1743" />
    <inkscape:path-effect
       effect="bspline"
       id="path-effect1712"
       is_visible="true"
       lpeversion="1"
       weight="33.333333"
       steps="2"
       helper_size="0"
       apply_no_weight="true"
       apply_with_weight="true"
       only_selected="false" />
    <inkscape:path-effect
       effect="bspline"
       id="path-effect1693"
       is_visible="true"
       lpeversion="1"
       weight="33.333333"
       steps="2"
       helper_size="0"
       apply_no_weight="true"
       apply_with_weight="true"
       only_selected="false" />
    <inkscape:path-effect
       effect="bspline"
       id="path-effect1685"
       is_visible="true"
       lpeversion="1"
       weight="33.333333"
       steps="2"
       helper_size="0"
       apply_no_weight="true"
       apply_with_weight="true"
       only_selected="false" />
  </defs>
  <sodipodi:namedview
     id="base"
     pagecolor="#ffffff"
     bordercolor="#666666"
     borderopacity="1.0"
     inkscape:pageopacity="0.0"
     inkscape:pageshadow="2"
     inkscape:zoom="1.4142136"
     inkscape:cx="258.54613"
     inkscape:cy="272.57861"
     inkscape:document-units="px"
     inkscape:current-layer="layer1"
     inkscape:document-rotation="0"
     showgrid="false"
     units="px"
     inkscape:window-width="1600"
     inkscape:window-height="900"
     inkscape:window-x="900"
     inkscape:window-y="900"
     inkscape:window-maximized="0" />
  <metadata
     id="metadata5">
    <rdf:RDF>
      <cc:Work
         rdf:about="">
        <dc:format>image/svg+xml</dc:format>
        <dc:type
           rdf:resource="http://purl.org/dc/dcmitype/StillImage" />
        <dc:title />
        <cc:license
           rdf:resource="https://www.gnu.org/licenses/gpl-3.0.txt" />
      </cc:Work>
    </rdf:RDF>
  </metadata>
  <g
     inkscape:label="Layer 1"
     inkscape:groupmode="layer"
     id="layer1">
    <rect
       style="fill:#ffffff;stroke:#000000;stroke-width:0.263431"
       id="rect1103"
       width="79.111481"
       height="52.653236"
       x="26.59005"
       y="53.048382"
       rx="26.359625" />
    <rect
       style="fill:#ffffff;fill-opacity:1;stroke:#000000;stroke-width:0.192526"
       id="rect1111"
       width="79.18354"
       height="27.853809"
       x="26.554024"
       y="77.883835" />
    <rect
       style="fill:#ffffff;fill-opacity:1;stroke:#000000;stroke-width:0.3896;stroke-opacity:0"
       id="rect1681"
       width="78.773735"
       height="0.40414861"
       x="26.758972"
       y="77.71772"
       ry="0" />
    <path
       style="fill:none;stroke:#000000;stroke-width:0.264583px;stroke-linecap:butt;stroke-linejoin:miter;stroke-opacity:1"
       d="m 13.781572,40.649232 c 17.661217,-8.78966 35.322326,-17.579267 52.8664,-17.60112 17.544074,-0.02185 34.970198,8.723487 52.396368,17.468845"
       id="path1691"
       inkscape:path-effect="#path-effect1693"
       inkscape:original-d="M 13.781572,40.649232 C 31.442947,31.85989 49.104057,23.070284 66.764902,14.280411 84.191993,23.026365 101.61812,31.771705 119.04434,40.516957" />
    <path
       style="fill:none;stroke:#000000;stroke-width:0.178167px;stroke-linecap:butt;stroke-linejoin:miter;stroke-opacity:1"
       d="m 26.59005,53.128189 c 13.273533,-5.303171 26.546948,-10.606296 39.73238,-10.619476 13.185432,-0.01318 26.282248,5.263238 39.3791,10.539669"
       id="path1691-2"
       inkscape:path-effect="#path-effect1712"
       inkscape:original-d="M 26.59005,53.128189 C 39.863665,47.825224 53.137081,42.5221 66.410298,37.218815 79.507834,42.495602 92.604651,47.772018 105.70153,53.048382" />
    <rect
       style="fill:#ffffff;fill-opacity:1;stroke:#000000;stroke-width:0.264583;stroke-opacity:1"
       id="rect1724"
       width="17.519512"
       height="24.820011"
       x="13.601337"
       y="35.289848"
       ry="7.9375" />
    <rect
       style="fill:#ffffff;fill-opacity:1;stroke:#000000;stroke-width:0.264583;stroke-opacity:1"
       id="rect1724-7"
       width="17.519512"
       height="24.820011"
       x="103.40134"
       y="36.31369"
       ry="7.9375" />
    <text
       xml:space="preserve"
       id="text1741"
       style="font-style:normal;font-weight:normal;font-size:5.64444px;line-height:1.25;font-family:sans-serif;white-space:pre;shape-inside:url(#rect1743);fill:#000000;fill-opacity:1;stroke:none;stroke-width:0.99994553;stroke-miterlimit:4;stroke-dasharray:none;"
       transform="matrix(1.8143477,0,0,1.7691205,-24.807282,-75.583128)"><tspan
         x="40.894531"
         y="83.810817"><tspan
           style="font-size:5.64444px;stroke-width:0.999946;stroke-miterlimit:4;stroke-dasharray:none">1   2   3
</tspan></tspan><tspan
         x="40.894531"
         y="90.866367"><tspan
           style="font-size:5.64444px;stroke-width:0.999946;stroke-miterlimit:4;stroke-dasharray:none">4   5   6
</tspan></tspan><tspan
         x="40.894531"
         y="97.921916"><tspan
           style="font-size:5.64444px;stroke-width:0.999946;stroke-miterlimit:4;stroke-dasharray:none">7   8   9</tspan></tspan></text>
    <rect
       style="fill:#ffffff;fill-opacity:0;stroke:#000000;stroke-width:1.7914938;stroke-miterlimit:4;stroke-dasharray:none;stroke-opacity:1"
       id="rect1747"
       width="48.696964"
       height="39.32914"
       x="42.827682"
       y="62.746529" />
    <rect
       style="fill:#ffffff;fill-opacity:0;stroke:#000000;stroke-width:1.79149;stroke-miterlimit:4;stroke-dasharray:none;stroke-dashoffset:0;stroke-opacity:1"
       id="rect3983"
       width="31.958145"
       height="24.788036"
       x="42.827682"
       y="62.746529" />
    <rect
       style="fill:#ffffff;fill-opacity:0;stroke:#000000;stroke-width:1.79149;stroke-miterlimit:4;stroke-dasharray:none;stroke-dashoffset:0;stroke-opacity:1"
       id="rect3985"
       width="32.358192"
       height="27.139221"
       x="59.166447"
       y="74.936447" />
    <rect
       style="fill:#ffffff;fill-opacity:0;stroke:#000000;stroke-width:1.79149;stroke-miterlimit:4;stroke-dasharray:none;stroke-dashoffset:0;stroke-opacity:1"
       id="rect3987"
       width="16.738815"
       height="14.541107"
       x="74.785828"
       y="87.534561" />
    <rect
       style="fill:#ffffff;fill-opacity:0;stroke:#000000;stroke-width:1.79149;stroke-miterlimit:4;stroke-dasharray:none;stroke-dashoffset:0;stroke-opacity:1"
       id="rect3989"
       width="16.338764"
       height="12.189919"
       x="42.827682"
       y="62.746529" />
    <ellipse
       style="fill:#ff0000;fill-opacity:0;stroke:#ff2a2a;stroke-width:1.85208338;stroke-miterlimit:4;stroke-dasharray:none;stroke-dashoffset:0;stroke-opacity:1"
       id="path3991"
       cx="65.743446"
       cy="65.438972"
       rx="62.580589"
       ry="50.956154" />
    <path
       style="fill:none;stroke:#ff0000;stroke-width:1.85208338;stroke-linecap:butt;stroke-linejoin:miter;stroke-opacity:1;stroke-miterlimit:4;stroke-dasharray:none"
       d="M 13.601337,35.289848 105.70153,105.70161"
       id="path3993" />
    <path
       style="fill:#00ff00;fill-opacity:0;stroke:none;stroke-width:2.47559;stroke-miterlimit:4;stroke-dasharray:none"
       d="m 413.95283,229.45445 c -9.8957,-2.59889 -17.52095,-9.73149 -21.07348,-19.71196 -1.1251,-3.16085 -1.16144,-3.81233 -1.32502,-23.75 -0.1901,-23.17059 0.0165,-25.20648 3.22116,-31.75 2.57181,-5.25122 8.04463,-10.70105 13.17734,-13.122 5.49623,-2.5924 8.23651,-3.09883 16.5,-3.04937 6.39479,0.0383 7.72875,0.19847 11.30853,1.35814 2.2322,0.72311 4.62528,1.76055 5.31797,2.30542 1.49502,1.17598 8.70531,10.65747 12.2673,16.13142 3.21331,4.9381 3.2609,5.40994 2.98823,29.62639 -0.23106,20.5212 -0.25396,20.68694 -3.80009,27.5 -3.57208,6.86295 -10.86801,12.48487 -18.81199,14.49568 -3.92052,0.99238 -15.94098,0.97188 -19.76995,-0.0337 z"
       id="path885"
       transform="scale(0.26458334)" />
    <path
       style="fill:#00ff00;fill-opacity:1;stroke:none;stroke-width:2.47559;stroke-miterlimit:4;stroke-dasharray:none"
       d="m 381.70283,192.69534 c -45.67896,-18.19324 -75.85639,-27.06748 -105.49999,-31.02423 -7.28709,-0.97266 -10.78314,-1.1377 -24.5,-1.15659 -17.27322,-0.0238 -22.3378,0.35631 -36.65101,2.75064 -21.10728,3.53085 -45.93778,10.63311 -74.98626,21.44831 -5.21323,1.94096 -9.74655,3.52902 -10.07406,3.52902 -0.32751,0 -3.02837,-1.85625 -6.00192,-4.125 l -5.40646,-4.125 -0.24344,-11.25 c -0.26931,-12.44485 -0.60345,-14.2393 -3.71749,-19.96402 -0.96157,-1.76771 -2.53077,-4.16892 -3.48712,-5.33602 -3.17035,-3.86899 -9.42302,-7.98981 -14.316701,-9.43543 l -1.884461,-0.55667 6.884462,-3.1832 c 56.77159,-26.2497 92.4944,-37.515794 131.88446,-41.59309 8.9008,-0.92133 29.83783,-0.777384 39.5,0.271568 38.55136,4.185248 77.9836,17.139452 134.18055,44.080732 l 8.18055,3.92182 -2.60265,0.58617 c -7.34693,1.65467 -15.49782,8.04034 -19.09311,14.95814 -3.5209,6.7747 -3.57328,7.13523 -3.79523,26.125 -0.11008,9.41875 -0.35089,17.1115 -0.53513,17.095 -0.18424,-0.0165 -3.70999,-1.37422 -7.83499,-3.01715 z"
       id="path897"
       transform="scale(0.26458334)" />
    <path
       style="fill:#00ff00;fill-opacity:1;stroke:none;stroke-width:2.47559;stroke-miterlimit:4;stroke-dasharray:none"
       d="m 413.95283,229.45445 c -9.8957,-2.59889 -17.52095,-9.73149 -21.07348,-19.71196 -1.1251,-3.16085 -1.16144,-3.81233 -1.32502,-23.75 -0.1901,-23.17059 0.0165,-25.20648 3.22116,-31.75 2.57181,-5.25122 8.04463,-10.70105 13.17734,-13.122 5.49623,-2.5924 8.23651,-3.09883 16.5,-3.04937 6.39479,0.0383 7.72875,0.19847 11.30853,1.35814 2.2322,0.72311 4.62528,1.76055 5.31797,2.30542 1.49502,1.17598 8.70531,10.65747 12.2673,16.13142 3.21331,4.9381 3.2609,5.40994 2.98823,29.62639 -0.23106,20.5212 -0.25396,20.68694 -3.80009,27.5 -3.57208,6.86295 -10.86801,12.48487 -18.81199,14.49568 -3.92052,0.99238 -15.94098,0.97188 -19.76995,-0.0337 z"
       id="path899"
       transform="scale(0.26458334)" />
    <path
       style="fill:#00ff00;fill-opacity:1;stroke:none;stroke-width:2.47559;stroke-miterlimit:4;stroke-dasharray:none"
       d="M 73.702841,225.2958 C 64.003696,222.46541 56.783126,215.53436 53.59321,205.99249 l -1.337228,-4 -0.193482,-18.92778 c -0.118815,-11.6234 0.0101,-20.44052 0.33406,-22.84772 0.644318,-4.78766 2.601531,-9.97443 5.065701,-13.42452 l 1.845774,-2.58427 28.822403,22.03948 28.822402,22.03949 -0.009,5.60266 c -0.0168,10.84237 -2.51776,17.51435 -8.94104,23.85266 -4.12884,4.07422 -8.199747,6.44713 -13.280329,7.74105 -4.319234,1.10001 -16.995031,0.9868 -21.01995,-0.18774 z"
       id="path901"
       transform="scale(0.26458334)" />
    <path
       style="fill:#00ff00;fill-opacity:1;stroke:none;stroke-width:2.47559;stroke-miterlimit:4;stroke-dasharray:none"
       d="M 91.108126,159.00056 C 77.031034,148.27112 65.499784,139.3091 65.483127,139.08496 c -0.04746,-0.63862 6.930252,-3.66893 9.869325,-4.28609 3.884269,-0.81563 15.224093,-0.68922 19.048832,0.21235 7.862046,1.85324 15.696346,8.07406 19.243716,15.28043 2.71393,5.51326 3.35524,9.44972 3.19429,19.6068 l -0.13645,8.61017 z"
       id="path903"
       transform="scale(0.26458334)" />
    <path
       style="fill:#00ff00;fill-opacity:1;stroke:none;stroke-width:0.309449;stroke-miterlimit:4;stroke-dasharray:none"
       d="m 118.17065,191.12493 c 0,-1.83452 0.0147,-2.2197 0.0829,-2.17856 0.22906,0.13813 3.72961,2.84374 3.72961,2.88266 0,0.034 -2.99529,1.23582 -3.70312,1.48582 -0.10285,0.0363 -0.10938,-0.0944 -0.10938,-2.18992 z"
       id="path905"
       transform="scale(0.26458334)" />
    <path
       style="fill:#00ff00;fill-opacity:1;stroke:none;stroke-width:2.47559;stroke-miterlimit:4;stroke-dasharray:none"
       d="M 372.95973,374.44931 349.33474,356.37089 V 325.2112 294.05152 h 24.74999 24.75 v 48.7324 c 0,47.66858 -0.0211,48.74371 -0.96713,49.25 -0.53192,0.28468 -1.03817,0.51224 -1.125,0.5057 -0.0868,-0.007 -10.78912,-8.14718 -23.78287,-18.09031 z"
       id="path907"
       transform="scale(0.26458334)" />
    <path
       style="fill:#00ff00;fill-opacity:1;stroke:none;stroke-width:2.47559;stroke-miterlimit:4;stroke-dasharray:none"
       d="m 349.33474,263.55152 v -30 l -80.375,-0.0169 -80.375,-0.0169 -14.86004,-11.35809 c -8.17303,-6.24695 -14.86678,-11.50978 -14.875,-11.69518 -0.0269,-0.60506 10.42058,-4.43479 16.14461,-5.91815 12.81712,-3.32152 11.04083,-3.24476 75.09043,-3.24476 53.49923,0 58.44246,0.0701 63.70191,0.90354 28.96432,4.58978 52.96525,19.8252 68.67917,43.59646 8.39379,12.69772 14.50256,29.85014 15.70745,44.10396 l 0.3082,3.64604 H 373.9081 349.33474 Z"
       id="path909"
       transform="scale(0.26458334)" />
    <path
       style="fill:#00ff00;fill-opacity:1;stroke:none;stroke-width:2.47559;stroke-miterlimit:4;stroke-dasharray:none"
       d="m 105.42352,396.19453 -4.58878,-2.85699 v -48.85211 c 0,-26.86867 0.13657,-49.20803 0.3035,-49.64302 0.27182,-0.70837 3.27175,-0.79089 28.75,-0.79089 h 28.4465 v 47.75 47.74999 h 95.49095 95.49095 l 0.13405,-11.72209 0.13405,-11.72208 20.10978,15.34708 c 11.06039,8.4409 20.11664,15.46733 20.125,15.61429 0.008,0.14696 -0.63825,0.65321 -1.43693,1.125 -1.3625,0.80484 -10.00046,0.8578 -139.91122,0.8578 H 110.0123 Z"
       id="path911"
       transform="scale(0.26458334)" />
    <path
       style="fill:#00ff00;fill-opacity:1;stroke:none;stroke-width:2.47559;stroke-miterlimit:4;stroke-dasharray:none"
       d="m 101.56976,291.67652 c 1.01317,-7.69622 1.98472,-13.17657 3.02508,-17.06404 6.19759,-23.15841 20.68724,-43.35914 40.71733,-56.76604 2.26722,-1.51754 4.5359,-2.89046 5.04153,-3.05094 0.66655,-0.21155 4.29544,2.29241 13.19854,9.10712 l 12.27923,9.3989 -8.74837,0.13653 -8.74836,0.13654 v 29.98846 29.98847 h -28.50591 -28.50591 z"
       id="path913"
       transform="scale(0.26458334)" />
    <path
       style="fill:#00ff00;fill-opacity:1;stroke:none;stroke-width:2.47559;stroke-miterlimit:4;stroke-dasharray:none"
       d="m 165.33474,260.05152 v -19.5 h 10.04232 10.04232 l 5.20768,4.03277 c 2.86422,2.21803 5.20768,4.10313 5.20768,4.18911 0,0.086 -1.2375,1.00864 -2.75,2.05034 -2.54333,1.75165 -2.75,2.04126 -2.75,3.85347 v 1.95948 l 2.375,-1.71307 c 1.30625,-0.94219 2.65625,-1.87463 3,-2.0721 0.4907,-0.28187 0.625,1.68874 0.625,9.17049 v 9.52951 h -3.5 -3.5 v 1.75 1.75 h 8.5 8.5 v -1.75 -1.75 h -3.25 -3.25 v -9.79167 c 0,-5.58866 0.19305,-9.72013 0.44975,-9.625 0.24736,0.0917 4.7384,3.42917 9.98008,7.41667 l 9.53033,7.25 0.0199,6.375 0.0199,6.375 h -27.25 -27.25 z"
       id="path915"
       transform="scale(0.26458334)" />
    <path
       style="fill:#00ff00;fill-opacity:1;stroke:none;stroke-width:2.47559;stroke-miterlimit:4;stroke-dasharray:none"
       d="m 208.87815,248.98022 -10.70659,-8.1787 10.65477,-0.13516 c 5.86012,-0.0743 10.74006,-0.0499 10.84431,0.0544 0.10425,0.10425 0.12757,3.84549 0.0518,8.31386 l -0.13772,8.12432 z"
       id="path917"
       transform="scale(0.26458334)" />
    <path
       style="fill:#00ff00;fill-opacity:1;stroke:none;stroke-width:0.875253;stroke-miterlimit:4;stroke-dasharray:none"
       d="m 227.0321,275.94012 c 0,-2.95938 0.0458,-3.69892 0.22097,-3.56507 0.12153,0.0929 2.09038,1.58901 4.37522,3.32474 2.28484,1.73572 4.37912,3.34001 4.65395,3.56507 l 0.4997,0.40922 h -4.87492 -4.87492 z"
       id="path921"
       transform="scale(0.26458334)" />
    <path
       style="fill:#00ff00;fill-opacity:1;stroke:none;stroke-width:0.875253;stroke-miterlimit:4;stroke-dasharray:none"
       d="m 245.51506,277.24139 -3.17218,-2.42867 8.87323,-0.0458 8.87323,-0.0458 v -1.41258 -1.41257 h -6.89429 c -3.91022,0 -6.89429,-0.0681 -6.89429,-0.15733 0,-0.0865 0.34665,-0.62349 0.77035,-1.19325 0.90079,-1.21132 2.80316,-3.0592 4.79811,-4.66067 2.76271,-2.21779 4.84937,-4.11614 5.66351,-5.15241 1.72361,-2.19389 2.3499,-4.23219 2.01845,-6.56921 -0.41641,-2.93606 -2.41069,-4.95889 -5.51621,-5.59518 -1.30303,-0.26699 -4.41887,-0.26355 -5.5405,0.006 -2.10251,0.50547 -4.12858,1.93536 -5.11704,3.61134 -0.345,0.58495 -0.96576,2.47397 -0.96576,2.93887 0,0.0685 0.61651,0.17587 1.37002,0.23859 0.75351,0.0627 1.58878,0.15538 1.85615,0.2059 0.41719,0.0788 0.48639,0.0335 0.48787,-0.31992 0.003,-0.73533 0.81467,-2.18263 1.60168,-2.85629 1.87958,-1.60884 5.34627,-1.5833 7.03114,0.0518 1.34517,1.30544 1.61039,3.59858 0.64591,5.58456 -0.64533,1.32879 -2.08722,2.81286 -4.9958,5.14191 -5.5195,4.41975 -7.96921,7.49114 -8.17048,10.24397 l -0.0916,1.25363 -7.54955,-5.76144 -7.54954,-5.76144 -0.008,-11.26951 -0.008,-11.26952 h 26.07456 26.07456 v 19.53383 19.53382 l -15.24699,-0.002 -15.24699,-0.002 -3.17218,-2.42866 z"
       id="path923"
       transform="scale(0.26458334)" />
    <path
       style="fill:#00ff00;fill-opacity:1;stroke:none;stroke-width:0.875253;stroke-miterlimit:4;stroke-dasharray:none"
       d="m 227.0321,307.07447 v -20.32932 h 9.52189 9.52189 l 5.9543,4.552 5.95431,4.552 -7.25608,0.0462 -7.25608,0.0462 v 0.63435 c 0,0.66294 -0.65029,11.26957 -0.77101,12.57578 l -0.0694,0.75131 h 1.8106 c 1.55222,0 1.87574,-0.0512 2.2671,-0.35909 0.25108,-0.1975 0.91809,-0.57493 1.48225,-0.83874 0.90278,-0.42216 1.23767,-0.47936 2.79351,-0.47716 1.41346,0.002 1.929,0.0764 2.57224,0.37128 1.17371,0.53805 2.03208,1.36958 2.58916,2.50821 0.41421,0.84662 0.4903,1.22481 0.48661,2.41859 -0.005,1.6811 -0.2388,2.56369 -0.97118,3.66938 -1.07877,1.62865 -2.86685,2.37352 -5.29769,2.20691 -2.26931,-0.15554 -3.69225,-1.05933 -4.52897,-2.87658 l -0.40988,-0.8902 -1.72795,0.18472 -1.72795,0.18473 0.0549,0.5287 c 0.16713,1.60943 1.86655,3.82355 3.61034,4.70381 1.6767,0.8464 3.06728,1.08443 5.79231,0.9915 1.85849,-0.0634 2.62795,-0.1674 3.47786,-0.47016 2.19175,-0.78075 4.08288,-2.56167 4.82422,-4.54308 1.31133,-3.50483 0.68796,-7.26462 -1.58214,-9.54258 -1.67454,-1.68034 -3.52034,-2.36644 -6.36639,-2.36644 -1.87469,0 -3.25933,0.29483 -4.61797,0.98331 l -0.89972,0.45592 0.10107,-1.02897 c 0.0556,-0.56594 0.14504,-1.82447 0.19878,-2.79674 0.0537,-0.97228 0.14412,-2.30473 0.20084,-2.96101 l 0.10314,-1.19325 h 5.99247 5.99246 v -1.06066 c 0,-0.58336 0.0378,-1.06066 0.084,-1.06066 0.0462,0 4.62027,3.46583 10.16466,7.70183 l 10.08071,7.70183 v 7.67775 7.67774 H 253.10666 227.0321 Z"
       id="path925"
       transform="scale(0.26458334)" />
    <path
       style="fill:#00ff00;fill-opacity:1;stroke:none;stroke-width:0.875253;stroke-miterlimit:4;stroke-dasharray:none"
       d="m 165.33703,307.07447 v -20.32932 h 27.40039 27.40039 v 20.32932 20.32932 h -27.40039 -27.40039 z m 38.00699,11.93242 v -2.91681 h 1.94455 1.94454 v -1.41421 -1.41422 h -1.94454 -1.94455 v -8.66804 -8.66803 l -1.89369,0.0502 -1.89369,0.0502 -6.05104,8.66206 -6.05105,8.66206 -0.0102,1.37002 -0.0102,1.37002 h 6.27557 6.27557 v 2.91681 2.91682 h 1.67938 1.67938 z"
       id="path927"
       transform="scale(0.26458334)" />
    <path
       style="fill:#00ff00;fill-opacity:1;stroke:none;stroke-width:1.75051;stroke-miterlimit:4;stroke-dasharray:none"
       d="m 195.43958,307.11968 c 2.33913,-3.35433 4.31878,-6.16508 4.39922,-6.24611 0.0805,-0.081 0.14627,2.66344 0.14627,6.0988 v 6.24611 h -4.39922 -4.39923 z"
       id="path929"
       transform="scale(0.26458334)" />
    <path
       style="fill:#00ff00;fill-opacity:1;stroke:none;stroke-width:0.875253;stroke-miterlimit:4;stroke-dasharray:none"
       d="m 268.5151,294.84179 -10.57999,-8.11569 h 10.62419 10.62418 v 8.13173 c 0,4.47245 -0.0199,8.12451 -0.0442,8.11569 -0.0243,-0.009 -4.80518,-3.6681 -10.62418,-8.13173 z"
       id="path933"
       transform="scale(0.26458334)" />
    <path
       style="fill:#00ff00;fill-opacity:1;stroke:none;stroke-width:0.875253;stroke-miterlimit:4;stroke-dasharray:none"
       d="m 309.3239,326.02743 c -0.97227,-0.74588 -2.44864,-1.87954 -3.28083,-2.51925 l -1.51307,-1.1631 1.32381,-0.0413 c 4.11859,-0.1286 6.91527,-2.2557 7.89098,-6.00172 0.34191,-1.31266 0.34157,-4.27713 -7e-4,-5.59093 -0.67883,-2.60618 -2.34208,-4.39734 -4.87686,-5.25189 -0.96271,-0.32456 -1.44347,-0.37317 -3.17667,-0.32119 -1.94509,0.0583 -2.10603,0.0928 -3.38155,0.72324 -0.8043,0.39756 -1.60624,0.9575 -2.00762,1.40177 l -0.66834,0.73978 0.10292,-1.58858 c 0.24813,-3.82995 1.58124,-6.52352 3.75499,-7.58703 0.84686,-0.41433 1.13246,-0.46395 2.35161,-0.40853 1.82567,0.083 2.84254,0.67046 3.64182,2.10395 l 0.54654,0.9802 1.57736,-0.27637 c 0.86754,-0.15201 1.60895,-0.37117 1.64757,-0.48703 0.0386,-0.11587 -0.17446,-0.72333 -0.4735,-1.34992 -1.05827,-2.21756 -3.02306,-3.50271 -5.84747,-3.82485 -5.11094,-0.58291 -8.77223,2.19346 -10.17262,7.71393 -0.85966,3.3889 -0.89686,8.64195 -0.0836,11.80521 0.19785,0.76959 0.33974,1.4174 0.3153,1.4396 -0.0244,0.0222 -2.49058,-1.83088 -5.48032,-4.11795 l -5.43588,-4.1583 V 297.48661 286.7261 h 28.19588 28.19588 v 20.32932 20.32932 l -15.68893,-5.3e-4 -15.68893,-5.3e-4 -1.76777,-1.35615 z"
       id="path935"
       transform="scale(0.26458334)" />
    <path
       style="fill:#00ff00;fill-opacity:1;stroke:none;stroke-width:0.875253;stroke-miterlimit:4;stroke-dasharray:none"
       d="m 286.07777,260.20959 v -19.62221 h 28.19588 28.19588 v 19.62221 19.62222 h -28.19588 -28.19588 z m 22.3476,14.58047 c 2.34481,-0.61075 3.97841,-1.85862 4.90976,-3.75047 0.50308,-1.0219 0.58353,-1.38272 0.644,-2.88823 0.13815,-3.43943 -1.23461,-5.40447 -4.45988,-6.38411 l -1.22368,-0.37168 0.95611,-0.35365 c 2.90279,-1.07366 4.17203,-3.06719 4.01703,-6.30932 -0.0935,-1.95457 -0.63758,-3.14633 -2.00867,-4.39943 -1.65132,-1.50921 -3.61259,-2.05102 -6.95554,-1.92149 -2.6953,0.10443 -3.97525,0.49717 -5.54232,1.70058 -1.26088,0.96827 -2.12763,2.29842 -2.52909,3.88127 -0.15627,0.6161 -0.25786,1.14566 -0.22578,1.1768 0.0321,0.0311 0.86205,0.11323 1.84436,0.1824 l 1.78602,0.12576 0.11288,-0.70588 c 0.3099,-1.93804 2.18539,-3.38356 4.59022,-3.53789 3.25817,-0.2091 5.24828,1.41775 5.24828,4.29029 0,2.88797 -1.74167,4.25165 -5.69661,4.46029 l -1.90479,0.10048 v 1.45226 1.45225 l 2.16552,0.0903 c 2.45082,0.10224 3.79123,0.49455 4.84206,1.41719 0.93941,0.82481 1.30122,1.68398 1.2992,3.08517 -0.004,2.88978 -1.98462,4.64743 -5.23657,4.64743 -3.10215,0 -5.01349,-1.26103 -5.58962,-3.68781 l -0.22063,-0.92935 -0.79549,0.0912 c -0.43753,0.0501 -1.26277,0.14136 -1.83387,0.20272 l -1.03838,0.11156 0.11101,0.8099 c 0.13812,1.00771 0.81188,2.50296 1.54483,3.42839 1.12244,1.41719 3.23214,2.46002 5.66345,2.79945 1.427,0.19922 4.26362,0.0625 5.52619,-0.26636 z"
       id="path937"
       transform="scale(0.26458334)" />
    <path
       style="fill:#00ff00;fill-opacity:1;stroke:none;stroke-width:0.875253;stroke-miterlimit:4;stroke-dasharray:none"
       d="m 303.29105,319.06838 c -2.65056,-1.31202 -4.08317,-5.49206 -2.91743,-8.51238 0.54993,-1.42482 2.40473,-2.59317 4.36679,-2.75067 3.13105,-0.25133 5.36876,1.72287 5.66374,4.99676 0.25671,2.84915 -0.8582,5.28607 -2.84079,6.20929 -1.19752,0.55764 -3.20676,0.58444 -4.27231,0.057 z"
       id="path939"
       transform="scale(0.26458334)" />
    <path
       style="fill:#00ff00;fill-opacity:1;stroke:none;stroke-width:0.875253;stroke-miterlimit:4;stroke-dasharray:none"
       d="m 286.07777,322.35277 v -5.03197 l 6.49654,4.96552 c 3.5731,2.73103 6.52969,4.99542 6.5702,5.03197 0.0405,0.0365 -2.88293,0.0665 -6.49654,0.0665 h -6.5702 z"
       id="path941"
       transform="scale(0.26458334)" />
    <path
       style="fill:#00ff00;fill-opacity:1;stroke:none;stroke-width:1.75051;stroke-miterlimit:4;stroke-dasharray:none"
       d="m 286.13067,358.27479 v -23.86486 h 11.06244 11.06244 l 17.03031,12.99309 17.03032,12.99309 0.0147,10.87176 0.0147,10.87177 h -28.10749 -28.1075 z m 22.01448,10.5196 c 3.28165,-1.29318 5.43836,-5.59795 5.81251,-11.60171 0.35759,-5.73806 -0.96354,-10.51171 -3.51314,-12.69407 -3.57687,-3.06167 -10.47521,-2.31245 -13.08472,1.42113 -2.87573,4.11447 -1.52128,11.33878 2.52667,13.47664 2.80005,1.4788 7.31764,0.98129 9.53516,-1.05008 l 0.84998,-0.77862 -0.21771,1.92312 c -0.26921,2.37821 -1.7085,5.40404 -2.96082,6.2246 -2.2839,1.49646 -5.5497,0.86175 -6.6652,-1.29541 -0.5423,-1.04868 -0.62758,-1.0812 -2.2157,-0.84482 -0.90842,0.13521 -1.71635,0.30888 -1.79539,0.38594 -0.079,0.077 0.14753,0.78595 0.50349,1.57533 0.84881,1.88232 2.65634,3.43336 4.31724,3.70461 0.73336,0.11976 1.57203,0.26995 1.86371,0.33374 0.89819,0.19645 3.64253,-0.22816 5.04392,-0.7804 z"
       id="path943"
       transform="scale(0.26458334)" />
    <path
       style="fill:#00ff00;fill-opacity:1;stroke:none;stroke-width:1.75051;stroke-miterlimit:4;stroke-dasharray:none"
       d="m 331.42641,342.78714 -10.74246,-8.20043 10.70774,-0.0936 c 5.88926,-0.0515 10.76613,-0.0353 10.8375,0.0361 0.0714,0.0714 0.087,3.80371 0.0347,8.29408 l -0.095,8.16432 z"
       id="path945"
       transform="scale(0.26458334)" />
    <path
       style="fill:#00ff00;fill-opacity:1;stroke:none;stroke-width:1.75051;stroke-miterlimit:4;stroke-dasharray:none"
       d="m 302.14613,356.69811 c -2.94368,-1.79487 -3.38304,-7.27445 -0.783,-9.76545 1.37857,-1.32076 4.21659,-1.57929 5.8781,-0.53546 2.33233,1.46526 3.41657,6.10545 1.99065,8.51934 -1.32456,2.2423 -4.86868,3.1334 -7.08575,1.78157 z"
       id="path947"
       transform="scale(0.26458334)" />
    <path
       style="fill:#00ff00;fill-opacity:1;stroke:none;stroke-width:1.75051;stroke-miterlimit:4;stroke-dasharray:none"
       d="m 227.08726,358.27479 v -23.86486 h 25.98617 25.98617 v 23.86486 23.86485 h -25.98617 -25.98617 z m 28.28427,10.71974 c 3.17098,-0.96719 4.93281,-3.53139 4.93616,-7.18421 0.003,-2.73804 -1.0183,-4.66536 -3.00299,-5.66965 l -1.42267,-0.7199 1.05738,-0.69431 c 1.83554,-1.20528 2.67476,-2.83164 2.67476,-5.18357 0,-3.01488 -1.03473,-4.65275 -3.88909,-6.156 -1.87194,-0.98586 -7.43592,-0.92518 -9.36916,0.10218 -1.69215,0.89924 -2.82272,2.05402 -3.33521,3.40664 -0.52213,1.37804 -0.47162,3.92774 0.10515,5.30814 0.54615,1.30712 2.45618,3.06182 3.34557,3.0735 0.32538,0.004 -0.0573,0.30248 -0.85041,0.66269 -2.62178,1.19075 -3.91452,3.71643 -3.57684,6.98821 0.24963,2.41869 1.30845,4.12627 3.27217,5.27708 2.56546,1.50346 6.65982,1.82481 10.05518,0.7892 z"
       id="path949"
       transform="scale(0.26458334)" />
    <path
       style="fill:#00ff00;fill-opacity:1;stroke:none;stroke-width:1.75051;stroke-miterlimit:4;stroke-dasharray:none"
       d="m 249.59532,366.59226 c -0.80276,-0.15459 -1.81335,-0.71783 -2.47487,-1.37936 -1.02774,-1.02774 -1.11809,-1.30542 -1.11809,-3.43655 0,-2.22578 0.0528,-2.36684 1.32064,-3.52873 0.88572,-0.81171 1.70074,-1.2272 2.47487,-1.26167 3.4353,-0.15296 5.2303,0.48319 6.098,2.16115 0.68826,1.33094 0.68826,3.9955 0,5.32644 -0.90332,1.74684 -3.57184,2.6442 -6.30055,2.11872 z"
       id="path953"
       transform="scale(0.26458334)" />
    <path
       style="fill:#00ff00;fill-opacity:1;stroke:none;stroke-width:1.75051;stroke-miterlimit:4;stroke-dasharray:none"
       d="m 247.73478,352.65329 c -1.04427,-1.04427 -1.20209,-1.43255 -1.20209,-2.95753 0,-3.07527 2.25603,-4.70387 5.78334,-4.17492 2.25725,0.3385 3.40905,1.73803 3.40905,4.14226 0,0.97013 -0.16381,2.06997 -0.36403,2.44409 -0.57873,1.08136 -2.26725,1.74818 -4.42674,1.74818 -1.80021,0 -2.11616,-0.1187 -3.19953,-1.20208 z"
       id="path955"
       transform="scale(0.26458334)" />
    <path
       style="fill:#00ff00;fill-opacity:1;stroke:none;stroke-width:1.75051;stroke-miterlimit:4;stroke-dasharray:none"
       d="m 165.56897,358.27479 v -23.86486 h 27.22361 27.22361 v 23.86486 23.86485 h -27.22361 -27.22361 z m 31.9255,8.15089 c 0.36707,-5.20133 2.63465,-10.82807 7.16413,-17.7769 1.50866,-2.31449 1.92256,-3.25131 1.92256,-4.35152 v -1.40205 h -9.01561 -9.01561 v 1.59099 1.59099 h 6.89429 c 3.79186,0 6.89429,0.074 6.89429,0.16447 0,0.0904 -0.86368,1.50328 -1.9193,3.13961 -4.09622,6.34966 -6.47237,12.36983 -6.82449,17.29041 l -0.19608,2.74004 h 1.94255 1.94255 z"
       id="path957"
       transform="scale(0.26458334)" />
  </g>
</svg>
